<?xml version="1.0" standalone="no"?>
<!DOCTYPE svg PUBLIC "-//W3C//DTD SVG 20010904//EN"
 "http://www.w3.org/TR/2001/REC-SVG-20010904/DTD/svg10.dtd">
<svg version="1.0" xmlns="http://www.w3.org/2000/svg"
 width="1003.000000pt" height="1003.000000pt" viewBox="0 0 1003.000000 1003.000000"
 preserveAspectRatio="xMidYMid meet">
<metadata>
Created by potrace 1.11, written by Peter Selinger 2001-2013
</metadata>
<g transform="translate(0.000000,1003.000000) scale(0.100000,-0.100000)"
fill="#000000" stroke="none">
<path d="M1343 7493 c-171 -116 -340 -370 -402 -604 -18 -71 -24 -107 -37
-228 -10 -97 -42 -128 -173 -165 -296 -84 -546 -283 -691 -550 -23 -42 -40
-83 -37 -90 3 -7 20 -13 39 -14 19 -1 72 -10 119 -21 201 -47 329 -47 514 0
99 25 160 51 250 104 92 54 126 68 163 62 61 -10 102 -52 265 -271 217 -291
311 -392 514 -548 84 -66 262 -184 358 -239 33 -18 74 -42 90 -51 42 -25 496
-252 640 -320 66 -31 174 -82 240 -114 168 -79 375 -174 381 -174 3 0 29 -11
57 -23 29 -13 95 -39 147 -57 52 -17 104 -36 115 -41 21 -9 198 -57 238 -64
12 -3 45 -9 72 -14 180 -35 455 -45 770 -28 253 14 376 17 892 21 287 2 526 7
532 11 6 3 9 16 7 28 -4 26 18 126 40 182 32 83 132 215 163 215 16 0 14 -8
-17 -59 -62 -102 -103 -241 -103 -353 1 -58 2 -70 19 -111 42 -100 193 -141
312 -84 116 57 188 152 270 357 12 30 29 71 38 90 l16 35 4 -29 c4 -31 -21
-141 -48 -217 -15 -39 -15 -49 -4 -53 32 -12 336 4 455 25 31 5 81 12 110 15
30 3 56 7 59 9 3 2 33 7 65 10 33 4 63 9 66 11 3 2 32 6 64 10 32 3 66 7 75 9
9 2 41 6 71 10 30 3 70 8 89 10 19 2 82 9 140 15 58 6 125 13 150 15 44 5 93
9 255 20 44 3 112 7 150 10 39 3 160 7 270 10 330 8 380 17 565 103 139 64
241 173 242 261 1 94 -73 125 -317 136 -55 2 -149 7 -210 10 -60 3 -168 8
-240 11 -71 3 -163 7 -203 8 -78 4 -97 12 -86 39 6 16 31 21 89 19 98 -4 519
-2 553 3 164 21 177 23 249 51 124 46 200 119 228 218 8 28 17 98 19 156 27
558 25 684 -9 801 -53 185 -224 342 -448 414 -179 57 -248 63 -747 58 -245 -2
-488 -5 -540 -7 -52 -2 -183 -7 -290 -11 -107 -4 -229 -8 -270 -10 -241 -11
-350 -17 -390 -20 -25 -2 -101 -7 -170 -11 -69 -3 -141 -8 -160 -9 -19 -1 -82
-6 -140 -9 -58 -4 -123 -9 -145 -11 -22 -2 -80 -6 -130 -10 -49 -3 -108 -8
-130 -10 -22 -3 -74 -7 -115 -10 -41 -3 -91 -7 -110 -10 -19 -2 -69 -7 -110
-10 -41 -3 -97 -9 -125 -11 -27 -3 -63 -7 -80 -8 -16 -2 -64 -6 -105 -10 -41
-4 -91 -9 -110 -11 -19 -3 -69 -7 -111 -10 -41 -3 -84 -7 -95 -9 -10 -2 -57
-7 -104 -11 -47 -4 -93 -9 -102 -10 -9 -2 -48 -7 -85 -10 -37 -4 -70 -9 -73
-10 -3 -2 -33 -7 -65 -10 -33 -4 -62 -9 -65 -10 -3 -2 -26 -6 -50 -10 -121
-17 -665 -162 -780 -207 -30 -12 -116 -52 -190 -89 -255 -126 -499 -210 -706
-244 -64 -10 -108 -17 -134 -21 -14 -3 -104 -6 -200 -8 -158 -4 -339 10 -402
30 -10 3 -30 7 -45 10 -52 9 -206 56 -277 86 -61 25 -183 87 -314 159 -176 98
-357 252 -400 340 -29 60 -28 94 8 185 54 134 74 254 75 439 0 145 -20 269
-59 359 -7 17 -28 66 -47 110 -41 96 -60 107 -116 69z m6505 -2445 c32 -10 62
-50 62 -83 0 -29 -28 -71 -55 -83 -20 -9 -37 -10 -66 -2 -53 15 -72 52 -60
123 2 15 50 54 68 54 10 1 33 -3 51 -9z"/>
<path d="M1642 3460 c-105 -5 -106 -5 -133 -53 -17 -30 -21 -120 -20 -440 l1
-197 55 -57 c68 -71 56 -69 467 -67 353 2 348 1 363 72 7 33 7 33 22 13 8 -12
20 -21 28 -21 8 0 20 -12 27 -27 l13 -28 168 0 c138 0 169 3 177 15 6 8 9 46
9 84 -1 48 2 71 12 77 11 7 15 -3 19 -49 4 -50 8 -58 33 -70 15 -7 27 -19 27
-26 0 -33 28 -38 192 -37 139 2 165 4 180 19 15 15 17 39 18 177 1 340 -6 503
-24 530 -9 14 -23 25 -31 25 -7 0 -17 10 -21 23 -4 12 -12 25 -18 29 -6 4 -78
7 -160 7 -191 1 -200 -3 -193 -92 5 -59 -5 -103 -22 -93 -4 3 -7 22 -5 43 2
43 -20 83 -47 83 -12 0 -19 7 -19 20 0 34 -32 40 -195 38 -183 -3 -184 -4
-186 -102 -1 -51 -2 -56 -9 -32 -5 16 -34 53 -64 82 -63 62 -19 55 -366 57
-107 1 -241 0 -298 -3z m328 -420 c0 -15 -7 -20 -25 -20 -24 0 -34 18 -18 33
15 15 43 7 43 -13z"/>
<path d="M4293 3460 c-45 -3 -84 -8 -88 -11 -3 -4 -7 -22 -7 -40 -1 -46 -6
-51 -28 -31 -10 9 -25 22 -32 28 -7 6 -21 21 -31 33 -16 20 -25 22 -95 18 -90
-5 -117 -16 -126 -52 -5 -20 -10 -23 -24 -16 -9 5 -25 12 -36 15 -11 4 -16 12
-12 21 3 8 -3 19 -13 24 -24 13 -300 12 -324 0 -15 -9 -17 -18 -13 -57 3 -26
8 -78 11 -117 10 -131 26 -283 40 -373 3 -20 7 -58 10 -83 6 -63 22 -100 44
-106 11 -3 25 -17 31 -33 l11 -28 182 0 c100 -1 190 1 199 4 14 4 47 77 54
122 5 29 15 24 31 -16 11 -29 24 -44 40 -48 12 -4 23 -12 23 -19 0 -8 7 -21
16 -29 12 -13 43 -15 182 -15 92 1 175 5 184 10 21 11 35 76 54 254 3 33 8 62
10 64 2 2 4 -43 5 -100 0 -57 2 -112 4 -122 5 -24 24 -47 41 -47 7 0 19 -12
26 -27 l13 -28 168 0 c138 0 169 3 177 15 5 8 10 47 10 86 0 53 4 73 14 77 12
5 15 -4 14 -44 0 -50 14 -79 38 -79 7 0 19 -12 26 -27 l13 -28 173 -3 173 -2
17 30 c21 36 32 38 32 6 0 -15 7 -27 18 -30 21 -6 308 -5 333 1 12 3 23 20 29
44 6 22 16 39 23 40 7 1 24 2 40 3 16 2 27 -2 27 -10 0 -6 14 -17 30 -23 20
-6 30 -17 30 -30 0 -11 8 -22 18 -25 9 -3 94 -5 187 -4 136 1 173 4 188 16 9
8 17 21 17 29 0 7 5 13 10 13 6 0 10 -4 10 -10 0 -5 9 -19 20 -30 19 -19 33
-20 268 -20 276 0 288 3 294 63 l3 32 44 -43 c25 -23 54 -45 65 -47 12 -3 148
-4 302 -2 261 2 283 3 303 21 12 11 21 31 21 45 0 18 3 22 9 13 4 -7 17 -15
27 -16 11 -2 20 -12 22 -25 2 -12 13 -26 25 -30 12 -5 159 -9 327 -10 l305 -1
30 24 c30 24 30 25 33 135 l4 110 -48 51 c-26 28 -76 71 -111 96 -69 49 -75
63 -21 45 18 -6 36 -11 40 -12 4 0 27 -6 50 -13 76 -22 86 -12 88 84 5 172 6
166 -59 232 l-60 59 -308 -3 c-297 -3 -309 -4 -331 -24 -15 -14 -23 -34 -24
-57 -1 -21 -2 -37 -4 -37 -1 0 -29 27 -63 60 l-60 60 -278 -1 c-153 -1 -286
-6 -295 -11 -43 -22 -50 -61 -52 -278 l-1 -207 -22 10 c-13 5 -25 18 -28 29
-12 36 -67 46 -129 22 -16 -6 -17 2 -10 117 12 215 15 202 -49 264 l-57 54
-138 0 c-134 1 -140 0 -166 -23 -14 -14 -27 -33 -27 -43 -1 -10 -3 -29 -5 -43
-1 -14 -3 -107 -4 -208 -1 -101 -4 -182 -5 -180 -2 2 -6 15 -9 30 -2 15 -16
69 -30 120 -14 51 -35 135 -47 186 -19 80 -25 93 -46 98 -13 4 -26 16 -29 30
-3 13 -14 26 -25 29 -10 4 -142 7 -292 7 -282 1 -317 -3 -317 -40 0 -9 -11
-51 -24 -92 -13 -41 -27 -91 -30 -110 -4 -19 -17 -80 -30 -135 l-24 -100 -2
65 c-1 36 -3 120 -4 188 -3 101 -6 126 -21 142 -10 11 -24 20 -31 20 -7 0 -16
10 -20 23 -4 12 -11 25 -17 29 -6 3 -78 7 -160 7 -192 2 -201 -3 -193 -91 5
-60 -5 -98 -25 -98 -5 0 -7 12 -5 26 9 46 -5 84 -35 100 -16 8 -29 21 -29 29
0 27 -36 34 -188 34 -139 1 -154 -1 -172 -19 -11 -11 -20 -24 -20 -30 0 -5 -7
-10 -15 -10 -8 0 -15 9 -15 20 0 10 -8 24 -18 29 -23 12 -141 18 -249 11z
m3699 -443 c21 -23 14 -41 -10 -28 -17 9 -123 36 -132 34 -41 -9 -42 -8 -44
34 -2 46 -10 59 -40 65 -29 5 -30 38 -1 38 14 0 30 6 37 14 11 12 26 2 93 -62
44 -41 88 -84 97 -95z m-186 -89 c-2 -18 -4 -38 -5 -45 -1 -16 -41 -4 -42 13
-1 8 -2 19 -3 26 -1 6 8 12 19 14 11 2 21 8 23 13 7 22 12 10 8 -21z"/>
</g>
</svg>
