<svg version="1" xmlns="http://www.w3.org/2000/svg" width="1337.333" height="1337.333" viewBox="0 0 1003.000000 1003.000000"><path d="M134.3 253.7c-17.1 11.6-34 37-40.2 60.4-1.8 7.1-2.4 10.7-3.7 22.8-1 9.7-4.2 12.8-17.3 16.5-29.6 8.4-54.6 28.3-69.1 55-2.3 4.2-4 8.3-3.7 9 .3.7 2 1.3 3.9 1.4 1.9.1 7.2 1 11.9 2.1 20.1 4.7 32.9 4.7 51.4 0 9.9-2.5 16-5.1 25-10.4 9.2-5.4 12.6-6.8 16.3-6.2 6.1 1 10.2 5.2 26.5 27.1 21.7 29.1 31.1 39.2 51.4 54.8 8.4 6.6 26.2 18.4 35.8 23.9 3.3 1.8 7.4 4.2 9 5.1 4.2 2.5 49.6 25.2 64 32 6.6 3.1 17.4 8.2 24 11.4 16.8 7.9 37.5 17.4 38.1 17.4.3 0 2.9 1.1 5.7 2.3 2.9 1.3 9.5 3.9 14.7 5.7 5.2 1.7 10.4 3.6 11.5 4.1 2.1.9 19.8 5.7 23.8 6.4 1.2.3 4.5.9 7.2 1.4 18 3.5 45.5 4.5 77 2.8 25.3-1.4 37.6-1.7 89.2-2.1 28.7-.2 52.6-.7 53.2-1.1.6-.3.9-1.6.7-2.8-.4-2.6 1.8-12.6 4-18.2 3.2-8.3 13.2-21.5 16.3-21.5 1.6 0 1.4.8-1.7 5.9-6.2 10.2-10.3 24.1-10.3 35.3.1 5.8.2 7 1.9 11.1 4.2 10 19.3 14.1 31.2 8.4 11.6-5.7 18.8-15.2 27-35.7 1.2-3 2.9-7.1 3.8-9l1.6-3.5.4 2.9c.4 3.1-2.1 14.1-4.8 21.7-1.5 3.9-1.5 4.9-.4 5.3 3.2 1.2 33.6-.4 45.5-2.5 3.1-.5 8.1-1.2 11-1.5 3-.3 5.6-.7 5.9-.9.3-.2 3.3-.7 6.5-1 3.3-.4 6.3-.9 6.6-1.1.3-.2 3.2-.6 6.4-1 3.2-.3 6.6-.7 7.5-.9.9-.2 4.1-.6 7.1-1 3-.3 7-.8 8.9-1 1.9-.2 8.2-.9 14-1.5 5.8-.6 12.5-1.3 15-1.5 4.4-.5 9.3-.9 25.5-2 4.4-.3 11.2-.7 15-1 3.9-.3 16-.7 27-1 33-.8 38-1.7 56.5-10.3 13.9-6.4 24.1-17.3 24.2-26.1.1-9.4-7.3-12.5-31.7-13.6-5.5-.2-14.9-.7-21-1-6-.3-16.8-.8-24-1.1-7.1-.3-16.3-.7-20.3-.8-7.8-.4-9.7-1.2-8.6-3.9.6-1.6 3.1-2.1 8.9-1.9 9.8.4 51.9.2 55.3-.3 16.4-2.1 17.7-2.3 24.9-5.1 12.4-4.6 20-11.9 22.8-21.8.8-2.8 1.7-9.8 1.9-15.6 2.7-55.8 2.5-68.4-.9-80.1-5.3-18.5-22.4-34.2-44.8-41.4-17.9-5.7-24.8-6.3-74.7-5.8-24.5.2-48.8.5-54 .7-5.2.2-18.3.7-29 1.1-10.7.4-22.9.8-27 1-24.1 1.1-35 1.7-39 2-2.5.2-10.1.7-17 1.1-6.9.3-14.1.8-16 .9-1.9.1-8.2.6-14 .9-5.8.4-12.3.9-14.5 1.1-2.2.2-8 .6-13 1-4.9.3-10.8.8-13 1-2.2.3-7.4.7-11.5 1-4.1.3-9.1.7-11 1-1.9.2-6.9.7-11 1-4.1.3-9.7.9-12.5 1.1-2.7.3-6.3.7-8 .8-1.6.2-6.4.6-10.5 1s-9.1.9-11 1.1c-1.9.3-6.9.7-11.1 1-4.1.3-8.4.7-9.5.9-1 .2-5.7.7-10.4 1.1-4.7.4-9.3.9-10.2 1-.9.2-4.8.7-8.5 1-3.7.4-7 .9-7.3 1-.3.2-3.3.7-6.5 1-3.3.4-6.2.9-6.5 1-.3.2-2.6.6-5 1-12.1 1.7-66.5 16.2-78 20.7-3 1.2-11.6 5.2-19 8.9-25.5 12.6-49.9 21-70.6 24.4-6.4 1-10.8 1.7-13.4 2.1-1.4.3-10.4.6-20 .8-15.8.4-33.9-1-40.2-3-1-.3-3-.7-4.5-1-5.2-.9-20.6-5.6-27.7-8.6-6.1-2.5-18.3-8.7-31.4-15.9-17.6-9.8-35.7-25.2-40-34-2.9-6-2.8-9.4.8-18.5 5.4-13.4 7.4-25.4 7.5-43.9 0-14.5-2-26.9-5.9-35.9-.7-1.7-2.8-6.6-4.7-11-4.1-9.6-6-10.7-11.6-6.9zm650.5 244.5c3.2 1 6.2 5 6.2 8.3 0 2.9-2.8 7.1-5.5 8.3-2 .9-3.7 1-6.6.2-5.3-1.5-7.2-5.2-6-12.3.2-1.5 5-5.4 6.8-5.4 1-.1 3.3.3 5.1.9zM164.2 657c-10.5.5-10.6.5-13.3 5.3-1.7 3-2.1 12-2 44l.1 19.7 5.5 5.7c6.8 7.1 5.6 6.9 46.7 6.7 35.3-.2 34.8-.1 36.3-7.2.7-3.3.7-3.3 2.2-1.3.8 1.2 2 2.1 2.8 2.1.8 0 2 1.2 2.7 2.7l1.3 2.8h16.8c13.8 0 16.9-.3 17.7-1.5.6-.8.9-4.6.9-8.4-.1-4.8.2-7.1 1.2-7.7 1.1-.7 1.5.3 1.9 4.9.4 5 .8 5.8 3.3 7 1.5.7 2.7 1.9 2.7 2.6 0 3.3 2.8 3.8 19.2 3.7 13.9-.2 16.5-.4 18-1.9s1.7-3.9 1.8-17.7c.1-34-.6-50.3-2.4-53-.9-1.4-2.3-2.5-3.1-2.5-.7 0-1.7-1-2.1-2.3-.4-1.2-1.2-2.5-1.8-2.9-.6-.4-7.8-.7-16-.7-19.1-.1-20 .3-19.3 9.2.5 5.9-.5 10.3-2.2 9.3-.4-.3-.7-2.2-.5-4.3.2-4.3-2-8.3-4.7-8.3-1.2 0-1.9-.7-1.9-2 0-3.4-3.2-4-19.5-3.8-18.3.3-18.4.4-18.6 10.2-.1 5.1-.2 5.6-.9 3.2-.5-1.6-3.4-5.3-6.4-8.2-6.3-6.2-1.9-5.5-36.6-5.7-10.7-.1-24.1 0-29.8.3zm32.8 42c0 1.5-.7 2-2.5 2-2.4 0-3.4-1.8-1.8-3.3 1.5-1.5 4.3-.7 4.3 1.3zm232.3-42c-4.5.3-8.4.8-8.8 1.1-.3.4-.7 2.2-.7 4-.1 4.6-.6 5.1-2.8 3.1-1-.9-2.5-2.2-3.2-2.8-.7-.6-2.1-2.1-3.1-3.3-1.6-2-2.5-2.2-9.5-1.8-9 .5-11.7 1.6-12.6 5.2-.5 2-1 2.3-2.4 1.6-.9-.5-2.5-1.2-3.6-1.5-1.1-.4-1.6-1.2-1.2-2.1.3-.8-.3-1.9-1.3-2.4-2.4-1.3-30-1.2-32.4 0-1.5.9-1.7 1.8-1.3 5.7.3 2.6.8 7.8 1.1 11.7 1 13.1 2.6 28.3 4 37.3.3 2 .7 5.8 1 8.3.6 6.3 2.2 10 4.4 10.6 1.1.3 2.5 1.7 3.1 3.3l1.1 2.8h18.2c10 .1 19-.1 19.9-.4 1.4-.4 4.7-7.7 5.4-12.2.5-2.9 1.5-2.4 3.1 1.6 1.1 2.9 2.4 4.4 4 4.8 1.2.4 2.3 1.2 2.3 1.9 0 .8.7 2.1 1.6 2.9 1.2 1.3 4.3 1.5 18.2 1.5 9.2-.1 17.5-.5 18.4-1 2.1-1.1 3.5-7.6 5.4-25.4.3-3.3.8-6.2 1-6.4.2-.2.4 4.3.5 10 0 5.7.2 11.2.4 12.2.5 2.4 2.4 4.7 4.1 4.7.7 0 1.9 1.2 2.6 2.7l1.3 2.8h16.8c13.8 0 16.9-.3 17.7-1.5.5-.8 1-4.7 1-8.6 0-5.3.4-7.3 1.4-7.7 1.2-.5 1.5.4 1.4 4.4 0 5 1.4 7.9 3.8 7.9.7 0 1.9 1.2 2.6 2.7l1.3 2.8 17.3.3 17.3.2 1.7-3c2.1-3.6 3.2-3.8 3.2-.6 0 1.5.7 2.7 1.8 3 2.1.6 30.8.5 33.3-.1 1.2-.3 2.3-2 2.9-4.4.6-2.2 1.6-3.9 2.3-4 .7-.1 2.4-.2 4-.3 1.6-.2 2.7.2 2.7 1 0 .6 1.4 1.7 3 2.3 2 .6 3 1.7 3 3 0 1.1.8 2.2 1.8 2.5.9.3 9.4.5 18.7.4 13.6-.1 17.3-.4 18.8-1.6.9-.8 1.7-2.1 1.7-2.9 0-.7.5-1.3 1-1.3.6 0 1 .4 1 1 0 .5.9 1.9 2 3 1.9 1.9 3.3 2 26.8 2 27.6 0 28.8-.3 29.4-6.3l.3-3.2 4.4 4.3c2.5 2.3 5.4 4.5 6.5 4.7 1.2.3 14.8.4 30.2.2 26.1-.2 28.3-.3 30.3-2.1 1.2-1.1 2.1-3.1 2.1-4.5 0-1.8.3-2.2.9-1.3.4.7 1.7 1.5 2.7 1.6 1.1.2 2 1.2 2.2 2.5.2 1.2 1.3 2.6 2.5 3 1.2.5 15.9.9 32.7 1l30.5.1 3-2.4c3-2.4 3-2.5 3.3-13.5l.4-11-4.8-5.1c-2.6-2.8-7.6-7.1-11.1-9.6-6.9-4.9-7.5-6.3-2.1-4.5 1.8.6 3.6 1.1 4 1.2.4 0 2.7.6 5 1.3 7.6 2.2 8.6 1.2 8.8-8.4.5-17.2.6-16.6-5.9-23.2l-6-5.9-30.8.3c-29.7.3-30.9.4-33.1 2.4-1.5 1.4-2.3 3.4-2.4 5.7-.1 2.1-.2 3.7-.4 3.7-.1 0-2.9-2.7-6.3-6l-6-6-27.8.1c-15.3.1-28.6.6-29.5 1.1-4.3 2.2-5 6.1-5.2 27.8l-.1 20.7-2.2-1c-1.3-.5-2.5-1.8-2.8-2.9-1.2-3.6-6.7-4.6-12.9-2.2-1.6.6-1.7-.2-1-11.7 1.2-21.5 1.5-20.2-4.9-26.4l-5.7-5.4h-13.8c-13.4-.1-14 0-16.6 2.3-1.4 1.4-2.7 3.3-2.7 4.3-.1 1-.3 2.9-.5 4.3-.1 1.4-.3 10.7-.4 20.8-.1 10.1-.4 18.2-.5 18-.2-.2-.6-1.5-.9-3-.2-1.5-1.6-6.9-3-12s-3.5-13.5-4.7-18.6c-1.9-8-2.5-9.3-4.6-9.8-1.3-.4-2.6-1.6-2.9-3-.3-1.3-1.4-2.6-2.5-2.9-1-.4-14.2-.7-29.2-.7-28.2-.1-31.7.3-31.7 4 0 .9-1.1 5.1-2.4 9.2-1.3 4.1-2.7 9.1-3 11-.4 1.9-1.7 8-3 13.5l-2.4 10-.2-6.5c-.1-3.6-.3-12-.4-18.8-.3-10.1-.6-12.6-2.1-14.2-1-1.1-2.4-2-3.1-2-.7 0-1.6-1-2-2.3-.4-1.2-1.1-2.5-1.7-2.9-.6-.3-7.8-.7-16-.7-19.2-.2-20.1.3-19.3 9.1.5 6-.5 9.8-2.5 9.8-.5 0-.7-1.2-.5-2.6.9-4.6-.5-8.4-3.5-10-1.6-.8-2.9-2.1-2.9-2.9 0-2.7-3.6-3.4-18.8-3.4-13.9-.1-15.4.1-17.2 1.9-1.1 1.1-2 2.4-2 3 0 .5-.7 1-1.5 1s-1.5-.9-1.5-2c0-1-.8-2.4-1.8-2.9-2.3-1.2-14.1-1.8-24.9-1.1zm369.9 44.3c2.1 2.3 1.4 4.1-1 2.8-1.7-.9-12.3-3.6-13.2-3.4-4.1.9-4.2.8-4.4-3.4-.2-4.6-1-5.9-4-6.5-2.9-.5-3-3.8-.1-3.8 1.4 0 3-.6 3.7-1.4 1.1-1.2 2.6-.2 9.3 6.2 4.4 4.1 8.8 8.4 9.7 9.5zm-18.6 8.9c-.2 1.8-.4 3.8-.5 4.5-.1 1.6-4.1.4-4.2-1.3-.1-.8-.2-1.9-.3-2.6-.1-.6.8-1.2 1.9-1.4 1.1-.2 2.1-.8 2.3-1.3.7-2.2 1.2-1 .8 2.1z"/></svg>